<svg width="21" height="21" viewBox="0 0 21 21" fill="none" xmlns="http://www.w3.org/2000/svg">
<path d="M8.5 5.5C8.4998 6.89064 8.91381 8.24983 9.68923 9.40421C10.4646 10.5586 11.5663 11.4559 12.8538 11.9816C14.1412 12.5073 15.5561 12.6376 16.9179 12.3559C18.2797 12.0742 19.5268 11.3933 20.5 10.4V10.5C20.5 16.023 16.023 20.5 10.5 20.5C4.977 20.5 0.5 16.023 0.5 10.5C0.5 4.977 4.977 0.5 10.5 0.5H10.6C9.93404 1.15113 9.40514 1.92896 9.04448 2.78768C8.68382 3.6464 8.49869 4.56862 8.5 5.5ZM2.5 10.5C2.49927 12.285 3.09553 14.0189 4.19389 15.426C5.29226 16.833 6.82963 17.8323 8.56141 18.2648C10.2932 18.6974 12.1199 18.5383 13.7508 17.813C15.3818 17.0876 16.7233 15.8377 17.562 14.262C16.0694 14.6136 14.5118 14.5781 13.0368 14.1587C11.5619 13.7394 10.2185 12.9501 9.13421 11.8658C8.04992 10.7815 7.26065 9.43814 6.84128 7.96318C6.42192 6.48821 6.38636 4.93056 6.738 3.438C5.45758 4.12014 4.38678 5.13766 3.64026 6.38164C2.89373 7.62562 2.49958 9.04921 2.5 10.5Z" fill="#220953"/>
</svg>
